HIERARCHY
ROOT hip
{
	OFFSET 0.000000 0.000000 0.000000 
	CHANNELS 6 Xposition Yposition Zposition Xrotation Zrotation Yrotation
	JOINT abdomen
	{
		OFFSET 0.000000 3.402643 0.000000 
		CHANNELS 3 Xrotation Zrotation Yrotation
		JOINT chest
		{
			OFFSET 0.000000 8.438565 -0.680529 
			CHANNELS 3 Xrotation Zrotation Yrotation
			JOINT neck
			{
				OFFSET 0.000000 10.207942 -0.272212 
				CHANNELS 3 Xrotation Zrotation Yrotation
				JOINT head
				{
					OFFSET 0.000000 3.130431 0.000000 
					CHANNELS 3 Xrotation Zrotation Yrotation
					End Site
					{
						OFFSET 0.000000 3.130435 0.000000 
					}
				}
			}
			JOINT lCollar
			{
				OFFSET 3.470700 6.669187 -0.816635 
				CHANNELS 3 Yrotation Zrotation Xrotation
				JOINT lShldr
				{
					OFFSET 3.198488 0.000000 0.000000 
					CHANNELS 3 Zrotation Yrotation Xrotation
					JOINT lForeArm
					{
						OFFSET 10.139888 0.000000 0.000000 
						CHANNELS 3 Yrotation Zrotation Xrotation
						JOINT lHand
						{
							OFFSET 8.370511 0.000000 0.000000 
							CHANNELS 3 Zrotation Yrotation Xrotation
							End Site
							{
								OFFSET 4.083176 0.000000 0.000000 
							}
						}
					}
				}
			}
			JOINT rCollar
			{
				OFFSET -3.470700 6.669187 -0.816635 
				CHANNELS 3 Yrotation Zrotation Xrotation
				JOINT rShldr
				{
					OFFSET -3.198488 0.000000 0.000000 
					CHANNELS 3 Zrotation Yrotation Xrotation
					JOINT rForeArm
					{
						OFFSET -10.139888 0.000000 0.000000 
						CHANNELS 3 Yrotation Zrotation Xrotation
						JOINT rHand
						{
							OFFSET -8.370511 0.000000 0.000000 
							CHANNELS 3 Zrotation Yrotation Xrotation
							End Site
							{
								OFFSET -4.083176 0.000000 0.000000 
							}
						}
					}
				}
			}
		}
	}
	JOINT lThigh
	{
		OFFSET 5.308129 -1.633274 1.361059 
		CHANNELS 3 Xrotation Zrotation Yrotation
		JOINT lShin
		{
			OFFSET -2.041588 -20.007561 0.000000 
			CHANNELS 3 Xrotation Zrotation Yrotation
			JOINT lFoot
			{
				OFFSET 0.000000 -19.190928 -1.224953 
				CHANNELS 3 Xrotation Yrotation Zrotation
				End Site
				{
					OFFSET 0.000000 -2.449906 4.627600 
				}
			}
		}
	}
	JOINT rThigh
	{
		OFFSET -5.308129 -1.633274 1.361059 
		CHANNELS 3 Xrotation Zrotation Yrotation
		JOINT rShin
		{
			OFFSET 2.041588 -20.007561 0.000000 
			CHANNELS 3 Xrotation Zrotation Yrotation
			JOINT rFoot
			{
				OFFSET 0.000000 -19.190928 -1.224953 
				CHANNELS 3 Xrotation Yrotation Zrotation
				End Site
				{
					OFFSET 0.000000 -2.449906 4.627600 
				}
			}
		}
	}
}
MOTION
Frames: 11
Frame Time: 0.016667
36.613388 44.303646 -60.845592 2.885780 3.345370 -30.983500 -16.644899 2.051310 0.891962 19.169701 1.132480 0.665947 11.748400 -17.510799 7.451990 11.601100 -0.906279 4.021850 2.000000 -2.000000 0.000000 95.000000 179.317001 -0.245651 27.412399 -0.336214 0.063003 0.049871 -0.040654 -151.598999 -2.000000 2.000000 0.000000 79.830704 -0.536613 167.410995 -39.102001 0.320944 0.086231 -0.056729 0.027242 -146.697006 -30.457767 -3.731118 -1.750861 33.764526 2.073714 2.725301 -4.667707 7.877238 1.656670 -5.918778 2.214326 2.304852 51.101837 -2.231920 -3.334448 12.191772 10.668742 -0.210763 
36.166393 44.076767 -59.697384 1.027870 3.983740 -31.353901 -16.582199 1.688620 1.062610 18.671000 1.717820 0.656370 10.939900 -17.348200 7.468610 11.112800 -0.828734 3.990400 2.000000 -2.000000 0.000000 93.789803 178.335007 -6.263470 27.969101 -0.335596 0.064179 0.047034 -0.027646 -146.843994 -2.000000 2.000000 0.000000 80.044800 -0.884909 166.003998 -39.228901 0.320753 0.086466 -0.056605 0.026514 -146.432999 -28.841164 -5.268080 -0.381685 35.604118 1.998981 2.856138 -5.458651 6.256542 1.403183 -7.206395 0.167804 2.786335 56.228012 -1.926043 -3.569461 15.748485 12.258949 -1.253773 
35.680080 43.992214 -58.515591 -0.784424 5.155770 -32.003799 -16.173800 1.009450 1.582890 19.003099 1.864550 0.799076 10.924400 -17.598900 7.427190 11.190900 -0.954713 3.963640 2.000000 -2.000000 0.000000 94.785599 179.121994 -4.630860 26.552999 -0.337144 0.061176 0.048575 -0.035341 -149.645996 -2.000000 2.000000 0.000000 80.707703 -0.890374 164.138000 -39.463299 0.320398 0.086898 -0.056637 0.026703 -146.501999 -26.848480 -7.152415 1.308142 36.471249 1.938004 2.924257 -7.479257 6.543577 1.464950 -8.732468 -2.273269 3.404732 60.832596 -1.603375 -3.770280 14.753827 13.748604 -1.582433 
35.246342 43.947346 -57.372997 -1.304570 5.379470 -32.787800 -15.987000 0.848564 1.680920 19.452499 1.874650 0.823271 10.960300 -17.876400 7.835280 11.230000 -0.935336 4.150990 2.000000 -2.000000 0.000000 95.039597 179.406998 -5.304060 26.152599 -0.337568 0.060320 0.049110 -0.037631 -150.485992 -2.000000 2.000000 0.000000 80.746101 -0.682994 163.132996 -39.248402 0.320723 0.086502 -0.056351 0.024948 -145.867004 -25.582129 -7.587449 2.213692 37.256924 1.919462 2.977637 -8.682776 6.235664 1.441292 -10.872757 -2.866586 4.091805 64.406677 -1.302595 -3.923829 10.897355 12.804994 -0.772992 
34.789459 44.007160 -56.255569 -1.550300 5.574140 -33.226101 -16.278700 0.492057 1.784020 19.188999 1.425380 0.835125 11.953600 -17.972500 7.743840 11.581600 -0.915961 4.167360 2.000000 -2.000000 0.000000 94.991600 178.768997 -8.049620 26.406500 -0.337300 0.060863 0.048533 -0.035154 -149.578003 -2.000000 2.000000 0.000000 81.478699 -1.523240 163.307007 -39.599998 0.320191 0.087150 -0.055904 0.021918 -144.772995 -24.275627 -7.816415 3.315372 37.462814 1.912515 2.980001 -9.862144 5.659621 1.332461 -13.090668 -3.222571 4.334087 66.902435 -1.064568 -4.063643 6.746214 10.895818 0.052174 
34.344379 44.134007 -55.156788 -1.530280 5.418000 -33.102901 -16.339100 0.361383 1.629590 19.365000 1.073990 0.758916 12.361700 -18.278799 7.884720 11.708600 -1.003050 4.270750 2.000000 -2.000000 0.000000 -85.320503 1.120560 170.729996 26.260099 -0.337455 0.060550 0.049103 -0.037604 -150.475998 -2.000000 2.000000 0.000000 81.868896 -2.000390 162.710007 -39.590199 0.320205 0.087132 -0.055698 0.020373 -144.216995 -22.799524 -7.991532 3.313093 37.313282 1.945282 2.954959 -10.859268 5.690177 1.327703 -15.249439 -3.181084 3.996707 68.455910 -0.854364 -4.131185 4.535909 7.589004 0.453891 
33.863907 44.296165 -54.053288 -1.941180 5.065470 -32.582901 -16.223101 0.407935 1.504000 19.482300 0.986155 0.713932 12.825100 -18.355600 7.638890 11.806300 -1.003020 4.181150 2.000000 -2.000000 0.000000 -85.954300 0.949321 168.503998 26.445601 -0.337258 0.060946 0.048963 -0.037019 -150.261993 -2.000000 2.000000 0.000000 81.750099 -2.717900 160.432999 -38.916401 0.321223 0.085887 -0.056538 0.026109 -146.287003 -20.651236 -8.364908 2.808998 36.907417 2.000923 2.914332 -12.061554 5.463959 1.260686 -16.549126 -3.259648 3.318681 69.153938 -0.767493 -4.167620 1.510590 4.769625 0.657492 
33.385235 44.413086 -53.015957 -2.187540 5.425750 -32.101501 -16.236500 0.287751 1.072480 19.648199 1.367020 0.476378 13.426300 -18.563999 7.927820 12.118800 -0.993241 4.352830 2.000000 -2.000000 0.000000 -86.149002 0.751184 167.292999 25.967100 -0.337762 0.059922 0.049954 -0.040972 -151.716995 -2.000000 2.000000 0.000000 81.886002 -3.320960 159.356995 -38.906700 0.321237 0.085869 -0.056317 0.024732 -145.789001 -18.963284 -9.223457 2.544491 36.110649 2.043409 2.867830 -12.392184 5.462786 1.212024 -18.246799 -3.727457 2.829598 68.901123 -0.749099 -4.186821 -1.367287 2.324657 0.640961 
32.869942 44.600643 -51.975594 -2.540720 5.434140 -31.676201 -16.412399 0.230720 1.059150 19.462601 1.415760 0.461255 13.712500 -18.684000 7.642040 12.089600 -1.138280 4.274170 2.000000 -2.000000 0.000000 -87.114899 1.206410 165.671005 26.367500 -0.337341 0.060779 0.049483 -0.039145 -151.042999 -2.000000 2.000000 0.000000 81.963600 -4.500720 158.514999 -38.252300 0.322211 0.084648 -0.056217 0.024084 -145.554993 -17.060312 -9.704049 2.246684 35.556648 2.098411 2.800154 -13.414092 5.604618 1.243889 -19.531500 -3.750840 2.428575 67.687866 -0.775286 -4.173055 -4.487022 -0.807052 0.325159 
32.363407 44.744507 -50.963764 -2.305980 5.610720 -31.123899 -16.412600 0.211067 1.034480 19.833799 1.406140 0.451016 14.327700 -18.657700 7.295310 12.372900 -1.186370 4.154020 2.000000 -2.000000 0.000000 -87.700203 1.174790 164.664993 27.305000 -0.336331 0.062775 0.049808 -0.040416 -151.511993 -2.000000 2.000000 0.000000 82.158203 -5.123800 157.643997 -37.705502 0.323014 0.083619 -0.056148 0.023624 -145.389008 -15.721197 -9.946371 1.958687 34.779636 2.135880 2.759987 -13.425018 5.337474 1.148906 -21.226099 -3.488207 2.091924 65.699280 -0.863902 -4.124236 -6.832500 -3.817836 -0.176168 
31.861591 44.880627 -49.948002 -2.604230 6.419200 -30.691000 -16.502899 0.043133 0.586652 19.902000 1.962760 0.202199 13.431000 -18.546101 7.795010 11.943000 -1.070680 4.335340 2.000000 -2.000000 0.000000 -88.958603 1.658200 162.535004 28.555000 -0.334934 0.065410 0.049423 -0.038906 -150.955002 -2.000000 2.000000 0.000000 81.553200 -5.690980 157.994003 -36.787498 0.324340 0.081876 -0.056002 0.022622 -145.026993 -14.277885 -11.049892 1.809016 33.932278 2.175505 2.682619 -13.539345 5.124360 1.054912 -22.593884 -4.082014 2.249866 63.179180 -1.027035 -4.038743 -9.459434 -5.647590 -0.711290 
